<svg xmlns="http://www.w3.org/2000/svg" width="182" height="137" viewBox="0 0 182 137">
  <g id="detalhes-verde" transform="translate(-722 -2374)">
    <path id="Caminho_5" data-name="Caminho 5" d="M179,66a3,3,0,1,1-2.121.879A3,3,0,0,1,179,66Zm-22,0a3,3,0,1,1-2.121.879A3,3,0,0,1,157,66Zm-22,0a3,3,0,1,1-2.121.879A3,3,0,0,1,135,66Zm-22,0a3,3,0,1,1-2.121.879A3,3,0,0,1,113,66ZM91,66a3,3,0,1,1-2.121.879A3,3,0,0,1,91,66ZM69,66a3,3,0,1,1-2.121.879A3,3,0,0,1,69,66ZM47,66a3,3,0,1,1-2.121.879A3,3,0,0,1,47,66ZM25,66a3,3,0,1,1-2.121.879A3,3,0,0,1,25,66ZM3,66a3,3,0,1,1-2.121.879A3,3,0,0,1,3,66ZM3,44a3,3,0,1,1-2.121.879A3,3,0,0,1,3,44Zm176,0a3,3,0,1,1-2.121.879A3,3,0,0,1,179,44Zm-22,0a3,3,0,1,1-2.121.879A3,3,0,0,1,157,44Zm-22,0a3,3,0,1,1-2.121.879A3,3,0,0,1,135,44Zm-22,0a3,3,0,1,1-2.121.879A3,3,0,0,1,113,44ZM91,44a3,3,0,1,1-2.121.879A3,3,0,0,1,91,44ZM69,44a3,3,0,1,1-2.121.879A3,3,0,0,1,69,44ZM47,44a3,3,0,1,1-2.121.879A3,3,0,0,1,47,44ZM25,44a3,3,0,1,1-2.121.879A3,3,0,0,1,25,44Zm0-22a3,3,0,1,1-2.121.879A3,3,0,0,1,25,22Zm22,0a3,3,0,1,1-2.121.879A3,3,0,0,1,47,22Zm22,0a3,3,0,1,1-2.121.879A3,3,0,0,1,69,22Zm22,0a3,3,0,1,1-2.121.879A3,3,0,0,1,91,22Zm22,0a3,3,0,1,1-2.121.879A3,3,0,0,1,113,22Zm22,0a3,3,0,1,1-2.121.879A3,3,0,0,1,135,22Zm22,0a3,3,0,1,1-2.121.879A3,3,0,0,1,157,22Zm22,0a3,3,0,1,1-2.121.879A3,3,0,0,1,179,22ZM3,22a3,3,0,1,1-2.121.879A3,3,0,0,1,3,22ZM25,0a3,3,0,1,1-2.121.879A3,3,0,0,1,25,0ZM47,0a3,3,0,1,1-2.121.879A3,3,0,0,1,47,0ZM69,0a3,3,0,1,1-2.121.879A3,3,0,0,1,69,0ZM91,0a3,3,0,1,1-2.121.879A3,3,0,0,1,91,0Zm22,0a3,3,0,1,1-2.121.879A3,3,0,0,1,113,0Zm22,0a3,3,0,1,1-2.121.879A3,3,0,0,1,135,0Zm22,0a3,3,0,1,1-2.121.879A3,3,0,0,1,157,0Zm22,0a3,3,0,1,1-2.121.879A3,3,0,0,1,179,0ZM3,0A3,3,0,1,1,.879.879,3,3,0,0,1,3,0Z" transform="translate(722 2374)" fill="#fff" fill-rule="evenodd"/>
    <path id="Caminho_6" data-name="Caminho 6" d="M179,66a3,3,0,1,1-2.121.879A3,3,0,0,1,179,66Zm-22,0a3,3,0,1,1-2.121.879A3,3,0,0,1,157,66Zm-22,0a3,3,0,1,1-2.121.879A3,3,0,0,1,135,66Zm-22,0a3,3,0,1,1-2.121.879A3,3,0,0,1,113,66ZM91,66a3,3,0,1,1-2.121.879A3,3,0,0,1,91,66ZM69,66a3,3,0,1,1-2.121.879A3,3,0,0,1,69,66ZM47,66a3,3,0,1,1-2.121.879A3,3,0,0,1,47,66ZM25,66a3,3,0,1,1-2.121.879A3,3,0,0,1,25,66ZM3,66a3,3,0,1,1-2.121.879A3,3,0,0,1,3,66ZM3,44a3,3,0,1,1-2.121.879A3,3,0,0,1,3,44Zm176,0a3,3,0,1,1-2.121.879A3,3,0,0,1,179,44Zm-22,0a3,3,0,1,1-2.121.879A3,3,0,0,1,157,44Zm-22,0a3,3,0,1,1-2.121.879A3,3,0,0,1,135,44Zm-22,0a3,3,0,1,1-2.121.879A3,3,0,0,1,113,44ZM91,44a3,3,0,1,1-2.121.879A3,3,0,0,1,91,44ZM69,44a3,3,0,1,1-2.121.879A3,3,0,0,1,69,44ZM47,44a3,3,0,1,1-2.121.879A3,3,0,0,1,47,44ZM25,44a3,3,0,1,1-2.121.879A3,3,0,0,1,25,44Zm0-22a3,3,0,1,1-2.121.879A3,3,0,0,1,25,22Zm22,0a3,3,0,1,1-2.121.879A3,3,0,0,1,47,22Zm22,0a3,3,0,1,1-2.121.879A3,3,0,0,1,69,22Zm22,0a3,3,0,1,1-2.121.879A3,3,0,0,1,91,22Zm22,0a3,3,0,1,1-2.121.879A3,3,0,0,1,113,22Zm22,0a3,3,0,1,1-2.121.879A3,3,0,0,1,135,22Zm22,0a3,3,0,1,1-2.121.879A3,3,0,0,1,157,22Zm22,0a3,3,0,1,1-2.121.879A3,3,0,0,1,179,22ZM3,22a3,3,0,1,1-2.121.879A3,3,0,0,1,3,22ZM25,0a3,3,0,1,1-2.121.879A3,3,0,0,1,25,0ZM47,0a3,3,0,1,1-2.121.879A3,3,0,0,1,47,0ZM69,0a3,3,0,1,1-2.121.879A3,3,0,0,1,69,0ZM91,0a3,3,0,1,1-2.121.879A3,3,0,0,1,91,0Zm22,0a3,3,0,1,1-2.121.879A3,3,0,0,1,113,0Zm22,0a3,3,0,1,1-2.121.879A3,3,0,0,1,135,0Zm22,0a3,3,0,1,1-2.121.879A3,3,0,0,1,157,0Zm22,0a3,3,0,1,1-2.121.879A3,3,0,0,1,179,0ZM3,0A3,3,0,1,1,.879.879,3,3,0,0,1,3,0Z" transform="translate(722 2439)" fill="#fff" fill-rule="evenodd"/>
  </g>
</svg>
