<?xml version="1.0" encoding="iso-8859-1"?>
<!-- Generator: Adobe Illustrator 21.0.0, SVG Export Plug-In . SVG Version: 6.00 Build 0)  -->
<svg xmlns="http://www.w3.org/2000/svg" xmlns:xlink="http://www.w3.org/1999/xlink" version="1.1" id="Capa_1" x="0px" y="0px" viewBox="0 0 511.494 511.494" fill="#FFF" style="enable-background:new 0 0 511.494 511.494;" xml:space="preserve" width="512" height="512">
<path d="M460.197,217.368c-0.08-0.04-0.16-0.09-0.24-0.14L97.877,6.539c-14.06-8.47-30.98-8.73-45.3-0.67  c-14.35,8.08-22.93,22.74-22.93,39.22v421.32c0,16.48,8.58,31.14,22.93,39.22c13.99,7.87,30.91,7.99,45.29-0.67  c0,0,362.25-210.6,362.33-210.65c13.55-8.23,21.65-22.61,21.65-38.47C481.847,239.979,473.747,225.598,460.197,217.368z   M338.177,181.079l-53.19,53.43L85.577,34.099L338.177,181.079z M59.647,460.848V50.569l204.17,205.2L59.647,460.848z   M85.407,477.499l199.57-200.46l53.22,53.49L85.407,477.499z M444.737,268.598l-79.73,46.35l-58.86-59.17l58.84-59.1l79.74,46.4  c6.42,3.96,7.12,10.24,7.12,12.76S451.147,264.638,444.737,268.598z"/>
</svg>